<svg xmlns="http://www.w3.org/2000/svg" width="15" height="11" viewBox="0 0 15 11"><g><g><path fill="#555" d="M13.928 9.75c0 .133-.125.25-.267.25H1.339c-.142 0-.268-.117-.268-.25v-6c.176.187.369.359.578.515a113.42 113.42 0 0 1 3.566 2.64C5.843 7.399 6.62 8 7.492 8h.016c.87 0 1.65-.601 2.277-1.093a113.552 113.552 0 0 1 3.566-2.64c.21-.157.402-.329.578-.517zm0-8.212c0 .665-.686 1.532-1.23 1.93-1.122.82-2.243 1.649-3.357 2.477C8.898 6.28 8.094 7 7.508 7h-.016c-.586 0-1.39-.72-1.834-1.055a524.712 524.712 0 0 0-3.356-2.477c-.754-.555-1.23-1.328-1.23-2.219 0-.132.125-.25.267-.25h12.322c.318 0 .268.344.268.54zM15 1.25C15 .562 14.397 0 13.66 0H1.34C.602 0 0 .562 0 1.25v8.5C0 10.437.603 11 1.34 11h12.32c.737 0 1.34-.562 1.34-1.25z"/></g></g></svg>