<svg xmlns="http://www.w3.org/2000/svg" width="90" height="90" viewBox="0 0 90 90"><defs><clipPath id="s3e5a"><path fill="#fff" d="M45 0c24.853 0 45 20.147 45 45S69.853 90 45 90 0 69.853 0 45 20.147 0 45 0z"/></clipPath></defs><g><g><g><path fill="#fff" d="M45 0c24.853 0 45 20.147 45 45S69.853 90 45 90 0 69.853 0 45 20.147 0 45 0z"/><path fill="none" stroke="#ddd" stroke-miterlimit="20" stroke-width="4" d="M45 0c24.853 0 45 20.147 45 45S69.853 90 45 90 0 69.853 0 45 20.147 0 45 0z" clip-path="url(&quot;#s3e5a&quot;)"/></g><g><path fill="#c0301c" d="M68.988 44.86c0 13.256-10.738 23.995-23.994 23.995S21 58.116 21 44.861c0-13.256 10.738-23.995 23.994-23.995s23.994 10.74 23.994 23.995zM35.327 26.706l5.195 5.195c1.42-.483 2.919-.75 4.472-.75 1.58 0 3.053.267 4.472.75l5.195-5.195a20.677 20.677 0 0 0-9.667-2.41c-3.481 0-6.775.883-9.667 2.41zm-3.294 22.628c-.482-1.42-.75-2.92-.75-4.472 0-1.58.268-3.053.75-4.473l-5.195-5.195a20.683 20.683 0 0 0-2.41 9.668c0 3.48.883 6.775 2.41 9.667zm22.628 13.684l-5.195-5.195c-1.42.482-2.892.75-4.472.75-1.553 0-3.053-.268-4.472-.75l-5.195 5.195a20.676 20.676 0 0 0 9.667 2.41c3.481 0 6.775-.883 9.667-2.41zm.616-18.156c0-5.677-4.606-10.283-10.283-10.283S34.711 39.184 34.711 44.86s4.606 10.283 10.283 10.283 10.283-4.606 10.283-10.283zm7.873 9.667a20.68 20.68 0 0 0 2.41-9.667c0-3.481-.883-6.775-2.41-9.668l-5.195 5.195c.482 1.42.75 2.92.75 4.473a13.87 13.87 0 0 1-.75 4.472z"/></g></g></g></svg>