<svg xmlns="http://www.w3.org/2000/svg" width="35" height="35" viewBox="0 0 35 35"><defs><clipPath id="7hu9a"><path fill="#fff" d="M17.5 0C27.165 0 35 7.835 35 17.5S27.165 35 17.5 35 0 27.165 0 17.5 7.835 0 17.5 0z"/></clipPath></defs><g><g><g><path fill="none" stroke="#fff" stroke-miterlimit="20" stroke-width="4" d="M17.5 0C27.165 0 35 7.835 35 17.5S27.165 35 17.5 35 0 27.165 0 17.5 7.835 0 17.5 0z" clip-path="url(&quot;#7hu9a&quot;)"/></g><g><path fill="#fff" d="M26 12.425a7.002 7.002 0 0 1-1.888.468c.68-.375 1.198-.965 1.441-1.669-.63.347-1.34.6-2.081.732a3.404 3.404 0 0 0-2.396-.957c-1.817 0-3.28 1.36-3.28 3.029 0 .234.031.468.082.693-2.72-.13-5.147-1.33-6.761-3.169-.285.45-.447.966-.447 1.529 0 1.05.579 1.978 1.462 2.522a3.514 3.514 0 0 1-1.482-.385v.038c0 1.472 1.127 2.69 2.63 2.972a3.768 3.768 0 0 1-.864.103 4.51 4.51 0 0 1-.62-.047c.417 1.2 1.625 2.072 3.067 2.1a6.92 6.92 0 0 1-4.071 1.294c-.274 0-.528-.01-.792-.038A9.836 9.836 0 0 0 15.035 23c6.03 0 9.33-4.613 9.33-8.616 0-.131 0-.262-.01-.394A6.777 6.777 0 0 0 26 12.425z"/></g></g></g></svg>